# xmcd
#
# Track frame offsets:
#	150
#	1023
#	14615
#	18973
#	36017
#	44292
#	58898
#	65470
#	78577
#	82588
#	99448
#	105886
#	122948
#	136352
#	145882
#	162369
#	165445
#	174910
#	181249
#	197605
#	199221
#	213182
#	215550
#	237144
#	238395
#	258806
#	261373
#	278937
#	280456
#	302770
#	309112
#
# Disc length: 4435 seconds
#
# Revision: 1
# Processed by: cddbd v1.4PL0 Copyright (c) Steve Scherf et al.
# Submitted via: audiograbber 1.80.04
#
DISCID=a611511f
DTITLE=die Rhöner Säuwäntzt - Blues von den Baumwollfeldern der Rhön
DYEAR=2001
DGENRE=
TTITLE0=Anfangsunfall
TTITLE1=Säuwäntzt auf Tour
TTITLE2=Begrüßung der Gäste
TTITLE3=Heimatabend
TTITLE4=Von einem der politisch nicht korrekt war
TTITLE5=Politisch nicht korrekt
TTITLE6=Erlebnisse im Geburtshaus
TTITLE7=Schimpflied
TTITLE8=Vorrede
TTITLE9=Man glaubt halt immer nur das was einem gerade paßt
TTITLE10=Wie man Gerüchte effektvoll einsetzt
TTITLE11=Wir bauen ein Gerücht
TTITLE12=Rotwurst und Kartoffelsuppe
TTITLE13=Erotische Lieder
TTITLE14=Das Lied vom Bürsten
TTITLE15=Was man zu jemandem sagt, wenn man ihn lieb hat
TTITLE16=Dubhorn
TTITLE17=Über alte Hausnamen
TTITLE18=Edeltraut
TTITLE19=Wenn man immer nur die Wahrheit sagt
TTITLE20=Man muss ja nicht die Wahrheit sagen...
TTITLE21=Über die schönsten Lieder der Rhön
TTITLE22=Mein Dorf
TTITLE23=Vom Umweltschutz und vorehelichem Geschlechtsverkehr
TTITLE24=Ballade vom Geierbirkhuhn
TTITLE25=Dörfliche Integrationsversuche
TTITLE26=Krieg im Neubaugebiet
TTITLE27=Vorrede
TTITLE28=Lass' die anderen ruhig lachen
TTITLE29=Altrhönesischer Hirtengesang
TTITLE30=Wenn der Mond auf geht hinter der Wasserkuppe
EXTD=
EXTT0=
EXTT1=
EXTT2=
EXTT3=
EXTT4=
EXTT5=
EXTT6=
EXTT7=
EXTT8=
EXTT9=
EXTT10=
EXTT11=
EXTT12=
EXTT13=
EXTT14=
EXTT15=
EXTT16=
EXTT17=
EXTT18=
EXTT19=
EXTT20=
EXTT21=
EXTT22=
EXTT23=
EXTT24=
EXTT25=
EXTT26=
EXTT27=
EXTT28=
EXTT29=
EXTT30=
PLAYORDER=
